# xmcd CD database file
#
# Track frame offsets:
#	150
#	11765
#	21990
#	38942
#	51447
#	65210
#	76952
#	89572
#	104590
#	119655
#	133662
#	147550
#	158675
#	173380
#	185997
#	198280
#
# Disc length: 2802 seconds
#
# Revision: 6
# Processed by: cddbd v1.5.2PL0 Copyright (c) Steve Scherf et al.
# Submitted via: CDex 1.51
#
DISCID=f00af010
DTITLE=Willie Nelson - The Ballads
DYEAR=2001
DGENRE=Country
TTITLE0=Touch Me
TTITLE1=Pride Wins Again
TTITLE2=I Let My Mind Wonder
TTITLE3=I Can't Find The Time
TTITLE4=You'll Always Have Someone
TTITLE5=Is There Something On Your Mind
TTITLE6=Any Old Arms Won't Do
TTITLE7=And So Will You My Love
TTITLE8=Face Of A Fighter
TTITLE9=Home Is Where You're Happy
TTITLE10=No Tomorrow In Sight
TTITLE11=Go Away
TTITLE12=What Can You Do To Me Now
TTITLE13=She's Not For You
TTITLE14=I Hope So
TTITLE15=Happiness Lives Next Door
EXTD=YEAR: 2001
EXTT0=
EXTT1=
EXTT2=
EXTT3=
EXTT4=
EXTT5=
EXTT6=
EXTT7=
EXTT8=
EXTT9=
EXTT10=
EXTT11=
EXTT12=
EXTT13=
EXTT14=
EXTT15=
PLAYORDER=
